<svg width="17" height="19" viewBox="0 0 17 19" fill="none" xmlns="http://www.w3.org/2000/svg">
<path fill-rule="evenodd" clip-rule="evenodd" d="M16.6398 9.71591C16.6398 9.04228 16.5857 8.39455 16.4854 7.77273H8.48967V11.4475H13.0587C12.8619 12.635 12.2637 13.6411 11.3646 14.3148V16.6984H14.1083C15.7136 15.0446 16.6398 12.6091 16.6398 9.71591Z" fill="#4285F4"/>
<path fill-rule="evenodd" clip-rule="evenodd" d="M8.48967 19C10.7819 19 12.7036 18.1493 14.1083 16.6984L11.3646 14.3148C10.6044 14.8848 9.63192 15.2216 8.48967 15.2216C6.2785 15.2216 4.40691 13.5504 3.73932 11.305H0.902993V13.7663C2.29993 16.8711 5.17098 19 8.48967 19Z" fill="#34A853"/>
<path fill-rule="evenodd" clip-rule="evenodd" d="M3.73932 11.305C3.56952 10.735 3.47305 10.1261 3.47305 9.49995C3.47305 8.87381 3.56952 8.26495 3.73932 7.69495V5.23358H0.902993C0.32801 6.51608 0 7.96699 0 9.49995C0 11.0329 0.32801 12.4838 0.902993 13.7663L3.73932 11.305Z" fill="#FBBC05"/>
<path fill-rule="evenodd" clip-rule="evenodd" d="M8.48967 3.77841C9.73611 3.77841 10.8552 4.25773 11.735 5.1991L14.17 2.47432C12.6998 0.941365 10.778 0 8.48967 0C5.17098 0 2.29993 2.12887 0.902993 5.23364L3.73932 7.69501C4.40691 5.44955 6.2785 3.77841 8.48967 3.77841Z" fill="#EA4335"/>
</svg>
