<svg width="22" height="20" viewBox="0 0 22 20" fill="none" xmlns="http://www.w3.org/2000/svg">
<path d="M20.6176 8.79824C21.1275 9.52231 21.1275 10.4777 20.6176 11.2018C19.058 13.4343 15.3389 18 11 18C6.66108 18 2.94201 13.4243 1.3824 11.2018C0.872532 10.4777 0.872532 9.52231 1.3824 8.79824C2.94201 6.56568 6.66108 2 11 2C15.3389 2 19.058 6.56568 20.6176 8.79824V8.79824Z" stroke="#3A3A3C" stroke-width="2" stroke-miterlimit="10" stroke-linecap="round"/>
<path d="M11 13C12.6569 13 14 11.6569 14 10C14 8.34315 12.6569 7 11 7C9.34315 7 8 8.34315 8 10C8 11.6569 9.34315 13 11 13Z" stroke="#3A3A3C" stroke-width="2" stroke-miterlimit="10" stroke-linecap="round"/>
</svg>
