<svg width="20" height="20" viewBox="0 0 20 20" fill="none" xmlns="http://www.w3.org/2000/svg">
<path d="M10 15C11.1046 15 12 14.1046 12 13C12 11.8954 11.1046 11 10 11C8.89543 11 8 11.8954 8 13C8 14.1046 8.89543 15 10 15Z" fill="#3A3A3C"/>
<path d="M9 15C9 15.5523 9.44772 16 10 16C10.5523 16 11 15.5523 11 15H9ZM9 13V15H11V13H9Z" fill="#3A3A3C"/>
<path d="M6.88976 7.59323V3.9599C6.94892 3.15494 7.30133 2.4027 7.87641 1.85384C8.45149 1.30497 9.20679 1 9.99103 1C10.7753 1 11.5306 1.30497 12.1057 1.85384C12.6807 2.4027 13.0331 3.15494 13.0923 3.9599V7.59323M5 8H14.9924C16.6514 8 17.9962 9.38431 17.9962 11.0919L17.9999 15.9081C17.9999 17.6157 16.655 19 14.9961 19H5.00369C3.34474 19 1.99989 17.6157 1.99989 15.9081L1.9962 11.0919C1.9962 9.38431 3.34105 8 5 8Z" stroke="#3A3A3C" stroke-width="2" stroke-miterlimit="10" stroke-linecap="round"/>
</svg>
